PathFileType	4	(X/Y/Z)	/Users/mathieubourgeois/Desktop/Analyse/Traitement/Sujet_08/Data/Transformed_Sujet_08_velo_100.trc
DataRate	CameraRate	NumFrames	NumMarkers	Units	OrigDataRate	OrigDataStartFrame	OrigNumFrames
120.000000	120.000000	5	35	mm	120.000000	1396	1862
Frame#	Time	RFHD			RANE			STRN			LANI			LKNE			T10			RHUM			RWRB			C7			LFWT			LTOE			RTOE			LWRA			LBWT			RBWT			RFWT			LKNI			RKNI			RKNE			LANE			RANI			LHEE			LHUM			LRAD			RRAD			RWRA			LWRB			LFHD			LBHD			RBHD			RSHO			LSHO			CLAV			LCAR			RCAR			
		X1	Y1	Z1	X2	Y2	Z2	X3	Y3	Z3	X4	Y4	Z4	X5	Y5	Z5	X6	Y6	Z6	X7	Y7	Z7	X8	Y8	Z8	X9	Y9	Z9	X10	Y10	Z10	X11	Y11	Z11	X12	Y12	Z12	X13	Y13	Z13	X14	Y14	Z14	X15	Y15	Z15	X16	Y16	Z16	X17	Y17	Z17	X18	Y18	Z18	X19	Y19	Z19	X20	Y20	Z20	X21	Y21	Z21	X22	Y22	Z22	X23	Y23	Z23	X24	Y24	Z24	X25	Y25	Z25	X26	Y26	Z26	X27	Y27	Z27	X28	Y28	Z28	X29	Y29	Z29	X30	Y30	Z30	X31	Y31	Z31	X32	Y32	Z32	X33	Y33	Z33	X34	Y34	Z34	X35	Y35	Z35	

1397	11.63333333333333	259.2840270996094	1477.396362304688	63.77900314331048	-239.1244049072266	606.3179931640625	176.5436096191406	-44.00470352172852	1154.766479492188	18.93704605102531	-88.60437774658202	301.2770385742188	-82.50603485107425	-63.37019729614256	712.584228515625	-149.268539428711	-192.1855773925781	1348.876708984375	13.10828399658193	134.0945587158203	1061.433349609375	209.8467102050781	334.9125366210937	905.9407348632812	253.7346649169922	28.20398712158203	1423.626342773438	17.62913703918449	-248.9730377197266	1090.029907226562	-108.3790969848634	60.47085189819337	181.1349182128906	-111.4101867675781	-121.1962890625	447.8490600585938	137.7779083251953	357.8948059082031	937.0241088867188	-178.7187347412109	-391.5888977050781	1151.91748046875	-47.26348114013684	-393.2969970703125	1153.201416015625	85.47107696533192	-237.6547393798828	1089.887084960938	123.0977325439452	-79.46109008789062	643.3192138671875	-45.78926086425786	34.85600662231445	825.1703491210938	86.49440002441401	24.13743591308591	884.570068359375	193.2526397705078	-125.1532440185547	290.3844909667969	-164.1850280761719	-210.5272827148438	604.8707885742188	98.4208908081054	-169.1608276367187	275.3352661132812	-121.2993545532227	123.2734756469727	1055.331176757812	-195.7559814453125	167.9937286376953	1082.810546875	-257.4147644042969	169.3208312988281	1081.167114257812	261.5617065429687	356.5459594726562	927.179931640625	185.4300537109375	331.163330078125	890.224853515625	-231.110336303711	253.8135070800781	1486.511352539062	-63.32447433471686	103.4704666137695	1527.437744140625	-64.81195068359384	101.3664779663086	1535.012573242188	72.55157470703116	70.41867065429686	1353.661499023438	145.6874389648437	65.36170196533205	1349.275146484375	-130.1427001953126	67.82551574707031	1289.085083007812	13.95174312591546	427.7080383300782	911.19140625	-257.3025817871094	435.0126342773437	912.1669311523438	272.2455444335938	
1398	11.64166666666667	259.3444519042969	1479.270751953125	65.49998474121088	-229.4706420898438	613.3823852539062	176.1210784912109	-42.82477569580078	1155.454711914062	19.09656906127922	-99.30191802978514	295.8977966308594	-83.77581024169925	-70.76695251464842	706.4898681640625	-148.6977233886719	-191.1914825439453	1349.283569335938	12.6970739364623	134.5466613769531	1061.822021484375	209.9261169433593	335.0505676269531	905.9580688476562	253.6965179443359	28.75036811828613	1424.439208984375	18.53735733032218	-248.6346893310547	1090.317749023438	-108.9454269409181	45.87483596801759	172.2844085693359	-111.4763412475586	-106.3601150512695	459.2327270507812	137.7578430175781	358.2821044921875	936.9697265625	-178.8389892578125	-390.9820556640625	1152.566040039062	-47.5364570617677	-392.6349182128906	1153.882690429688	85.14542388916004	-237.349609375	1090.880249023438	122.8033752441405	-88.92418670654297	637.2221069335938	-45.30444335937505	39.98372268676757	838.6210327148438	85.92338562011713	27.95614242553708	896.5994873046875	192.7335357666015	-138.1707611083984	284.9371643066406	-164.5289459228516	-201.0599670410156	612.5088500976562	97.9842453002929	-182.0606842041015	270.6025085449219	-121.7679824829102	124.2607574462891	1056.258178710938	-195.8328247070313	169.1968841552735	1083.793334960938	-257.3947448730469	169.6953582763672	1081.3828125	261.7248535156249	356.7041320800781	927.2210083007812	185.3895874023438	331.3295593261719	890.3047485351562	-231.2715454101563	253.9208526611328	1488.660766601562	-61.59801101684577	103.3471145629883	1528.619140625	-63.09790420532234	101.12353515625	1535.820922851562	74.30445098876945	70.7631378173828	1354.177856445312	146.6221618652343	67.27723693847658	1350.135620117188	-129.5494384765626	68.72866821289062	1290.031616210938	14.83086204528802	427.9570617675782	911.108642578125	-257.3788757324219	435.1646728515624	912.1002197265625	272.1695861816406	
1399	11.65	259.3334350585938	1480.989013671875	67.09323883056635	-219.0083160400391	618.7664184570312	175.7305755615234	-41.70587921142578	1156.090942382812	19.12821006774895	-113.0895309448242	291.4820251464844	-83.58979797363284	-77.6363067626953	701.6309204101562	-148.1782379150391	-190.3027648925781	1349.650024414062	12.36532020568837	134.9400024414062	1062.241821289062	210.0117950439453	335.1928100585937	905.9928588867188	253.6781921386718	29.26274490356445	1425.229858398438	19.32248306274406	-248.4424285888672	1090.587646484375	-109.3464431762696	30.66026115417482	164.6427612304688	-111.5602569580078	-90.70240020751955	468.9361267089844	137.7386474609375	358.5169067382812	936.95361328125	-178.9408874511719	-390.5878601074219	1153.286865234375	-47.5319290161134	-392.0871887207031	1154.612670898438	85.12864685058582	-237.2280883789063	1091.90869140625	122.4833068847655	-97.56082916259766	632.456298828125	-44.83045578002935	42.33575439453124	851.98291015625	85.66575622558588	31.10910034179685	908.2532958984375	192.1430206298828	-151.2030487060547	281.0100402832031	-164.6635894775391	-190.0228576660156	618.5756225585938	97.92524719238274	-195.259521484375	267.4827880859375	-121.871208190918	125.1080932617188	1057.221557617188	-196.0499420166016	170.2516021728516	1084.778930664062	-257.4479064941407	170.0222015380859	1081.630981445312	261.8430786132812	356.8114013671875	927.2418212890625	185.3623352050781	331.5381164550781	890.4589233398438	-231.4112854003907	254.0355377197266	1490.81298828125	-59.99480056762702	103.2257461547852	1529.763916015625	-61.58576583862313	100.6819686889648	1536.506103515625	75.8045120239257	71.00406646728514	1354.67333984375	147.422637939453	68.81428527832033	1351.123168945312	-128.918197631836	69.60954284667969	1290.973754882812	15.45447254180901	428.1228027343751	911.0416870117188	-257.4360961914062	435.2950134277343	912.038330078125	272.1120910644531	
1400	11.65833333333333	259.2024841308594	1482.63330078125	68.55937194824213	-207.8358001708985	622.4255981445312	175.2820739746093	-40.5858268737793	1156.635131835938	19.08850288391106	-125.9758148193359	288.2275085449219	-83.36283111572268	-83.43223571777342	697.915283203125	-147.748764038086	-189.5158233642578	1350.07275390625	12.17983055114735	135.2678070068359	1062.574951171875	209.9965362548828	335.2975158691406	906.0534057617188	253.64794921875	29.68864250183105	1425.995849609375	20.00483322143546	-248.3726196289062	1090.937255859375	-109.6654281616212	15.57930183410646	157.8654327392578	-111.3350677490235	-75.23548889160158	476.9690856933594	137.703628540039	358.6807250976562	937.0044555664062	-179.0395965576172	-390.3395080566406	1154.117431640625	-47.32651519775403	-391.74853515625	1155.424560546875	85.26791381835926	-237.2603149414063	1092.986450195312	122.0936203002929	-105.0484161376953	628.9237670898438	-44.40462112426763	46.54923629760741	863.0963745117188	82.52814483642572	33.69908523559568	919.2919921875	191.2126159667968	-164.3615570068359	278.3656311035156	-164.4203186035157	-179.7688751220703	622.761962890625	96.99028778076165	-209.0384521484375	265.2692260742188	-121.953971862793	125.756576538086	1058.145141601562	-196.2851257324219	171.1895751953125	1085.666625976562	-257.5213623046876	170.3302307128906	1081.8759765625	261.8531188964843	356.9353637695312	927.2354125976562	185.3114013671875	332.0797424316407	891.830078125	-232.4907836914063	254.0534210205078	1492.865356445312	-58.44644165039069	103.0515975952149	1530.861694335938	-60.24977493286141	100.2362976074219	1537.181396484375	77.16213989257804	71.32510375976561	1355.179443359375	148.0565032958984	70.11856842041017	1352.076416015625	-128.2228240966798	70.41845703125	1291.816650390625	15.99270057678216	428.2622375488282	911.0140380859375	-257.4538879394531	435.3918457031249	911.989990234375	272.0901489257812	
1401	11.66666666666667	258.9227905273438	1484.180541992188	69.85176849365229	-196.1335144042969	624.3096923828125	174.8417816162109	-39.65729522705078	1157.056396484375	18.94765090942375	-139.0003356933594	286.3307189941406	-82.68121337890628	-88.07640075683592	695.1638793945312	-147.5920715332032	-188.8809509277344	1350.544311523438	12.16710376739491	135.5967102050781	1062.830688476562	209.8804168701172	335.4042358398437	906.0960083007812	253.5712890625	30.03837013244629	1426.693725585938	20.46425819396964	-248.4555816650391	1091.309814453125	-109.8748931884767	-1.191671967506395	152.9137573242188	-111.7751846313477	-58.77891159057619	483.2284851074219	137.5813751220703	358.7698669433594	937.0902099609375	-179.1280212402344	-390.2497253417969	1154.92041015625	-46.98323059082043	-391.556640625	1156.37939453125	85.47441864013661	-237.513656616211	1094.147216796875	121.7414932250976	-110.4667892456055	626.6519775390625	-44.32135772705083	50.64684295654296	872.1635131835938	81.21398162841791	35.63700103759763	929.47802734375	190.1140594482421	-177.9011535644531	277.3046264648438	-163.5438232421876	-168.1059417724609	625.32470703125	96.49174499511713	-222.633544921875	264.7424621582031	-119.6030044555664	126.2200088500977	1058.97021484375	-196.5809326171875	171.898666381836	1086.476318359375	-257.6316528320313	170.6523742675781	1082.068115234375	261.7419738769531	357.0610961914062	927.217529296875	185.2732391357422	332.1010131835938	891.9752197265625	-232.6219482421875	254.0192413330078	1494.838989257812	-57.09926986694342	102.8349685668945	1531.869384765625	-59.10857772827156	99.68496704101561	1537.6611328125	78.30785369873038	71.58280181884764	1355.571533203125	148.550079345703	71.15618896484376	1352.919555664062	-127.667091369629	71.09268188476562	1292.647827148438	16.31767845153801	428.3493041992188	910.9708862304688	-257.4462280273438	435.4730529785156	911.9263916015625	272.0867004394531	
